<svg xmlns="http://www.w3.org/2000/svg" viewBox="0 0 100 100">
  <!-- Circular Frame -->
  <circle cx="50" cy="50" r="45" fill="none" stroke="#FFFFFF" stroke-width="4" />
  
  <!-- Laurel Wreath (Adapted from favicon.svg) -->
  <g transform="translate(0, 0)">
    <!-- Left Laurel -->
    <path d="M15 45 C5 65 25 85 50 92 C35 85 20 65 25 45" fill="#FFFFFF" />
    <path d="M20 40 Q10 45 15 55 Q20 50 20 40 Z" fill="#FFFFFF"/>
    <path d="M18 50 Q8 55 12 65 Q18 60 18 50 Z" fill="#FFFFFF"/>
    <path d="M15 60 Q5 65 10 75 Q16 70 15 60 Z" fill="#FFFFFF"/>
    
    <!-- Right Laurel (Mirrored) -->
    <g transform="translate(100, 0) scale(-1, 1)">
       <path d="M15 45 C5 65 25 85 50 92 C35 85 20 65 25 45" fill="#FFFFFF" />
       <path d="M20 40 Q10 45 15 55 Q20 50 20 40 Z" fill="#FFFFFF"/>
       <path d="M18 50 Q8 55 12 65 Q18 60 18 50 Z" fill="#FFFFFF"/>
       <path d="M15 60 Q5 65 10 75 Q16 70 15 60 Z" fill="#FFFFFF"/>
    </g>
  </g>

  <!-- Database Symbol (Center) -->
  <g transform="translate(34, 28) scale(0.4)">
    <!-- Top Disc -->
    <ellipse cx="50" cy="20" rx="40" ry="10" fill="none" stroke="#FFFFFF" stroke-width="8"/>
    <!-- Middle Disc -->
    <path d="M10 20 V 50 A 40 10 0 0 0 90 50 V 20 M10 50 A 40 10 0 0 1 90 50" fill="none" stroke="#FFFFFF" stroke-width="8"/>
    <!-- Bottom Disc -->
    <path d="M10 50 V 80 A 40 10 0 0 0 90 80 V 50 M10 80 A 40 10 0 0 1 90 80" fill="none" stroke="#FFFFFF" stroke-width="8"/>
    <!-- Lines for separation -->
    <line x1="10" y1="20" x2="10" y2="80" stroke="#FFFFFF" stroke-width="8"/>
    <line x1="90" y1="20" x2="90" y2="80" stroke="#FFFFFF" stroke-width="8"/>
  </g>
</svg>
